<svg width="320" height="360" enable-background="new" viewBox="0 0 84.667 95.25" xmlns="http://www.w3.org/2000/svg"><defs><linearGradient id="b" x1="44.715" x2="45.743" y1="911.3" y2="880.47" gradientUnits="userSpaceOnUse"><stop stop-color="#f2f2f2" offset="0"/><stop stop-color="#f2f2f2" stop-opacity="0" offset="1"/></linearGradient><filter id="a" color-interpolation-filters="sRGB"><feGaussianBlur result="fbSourceGraphic" stdDeviation="1.32 1.12"/><feColorMatrix in="fbSourceGraphic" result="fbSourceGraphicAlpha" values="0 0 0 -1 0 0 0 0 -1 0 0 0 0 -1 0 0 0 0 1 0"/><feGaussianBlur in="fbSourceGraphic" result="blur" stdDeviation="1.32 1.12"/></filter></defs><g fill="#1a1a1a"><path d="M30.256 68.38c-2.364 5.112-8.242 8.563-7.913 15.122 0 0 .267 5.345 7.016 5.88 4.627.162 9.998-1.136 12.428-5.412-.499 9.406 11.946 7.851 15.568 6.949 7.51-2.012 13.738-11.058 13.738-11.058 6.008.16 9.07-.929 9.307-3.922-.18-4.724-7.181-3.742-8.315-3.685-1.228.756 2.599-3.874 2.599-3.874z"/><path d="M30.256 925.63c-2.364 5.112-8.242 8.563-7.913 15.122 0 0 .267 5.345 7.016 5.88 4.627.163 9.998-1.136 12.428-5.412-.499 9.406 11.946 7.851 15.568 6.949 7.51-2.012 13.738-11.058 13.738-11.058 6.008.16 9.07-.929 9.307-3.922-.18-4.724-7.181-3.742-8.315-3.685-1.228.756 2.599-3.874 2.599-3.874z" filter="url(#a)" opacity=".7" transform="translate(0 -857.25)"/><path d="M69.58 23.66c3.673 11.022-4.631 22.901-16.781 26.013-12.15 3.111-24.336-3.49-27.218-14.746-2.882-11.255 3.706-25.465 17.917-26.614 14.6-1.18 22.732 5.295 26.082 15.347z"/><path d="M53.073 36.47a19.843 19.843 0 00-2.627.158c-14.166 1.79-24.568 7.036-22.3 18.52 0 4.383.704 9.035 2.11 13.23h44.428c.2-1.856.308-4.09.331-6.804C76.61 49.39 66.06 36.553 53.074 36.47zM26.255 23.02s-4.299-2.648-4.914-9.827c0 0 12.406.249 13.843-.331zM51.152 10.1s-.839-.827.565-4.678c0 0 7.149 3.716 7.003 6.846z"/></g><path d="M46.087 898.24c-.985 0-2.017.066-3.1.211-9.383 1.265-14.183 9.772-11.762 22.922.28 1.517.696 2.938 1.223 4.255H60.62c2.133-3.545 3.112-7.774 2.02-12.304-2.007-8.334-7.035-15.055-16.552-15.084z" fill="url(#b)" transform="translate(0 -857.25)"/><path d="M60.989 32.38c.054 13.733-1.516 14.692-10.078 15.989-12.692 1.921-21.63-2.536-23.716-10.724-2.663-10.453 2.616-17.216 12.936-18.221 12.697-1.237 20.828 5.251 20.858 12.957z" fill="#1a1a1a"/><path d="M26.468 21.17c-1.484-1.15-3.007-2.88-3.148-5.91 0 0 2.79 1.061 6.927.355 0 0-1.827 1.56-3.78 5.555z" fill="#e6e6e6"/><path d="M50.63 13.26c1.083-2.27 1.774-4.667 1.774-4.667s2.953.592 4.845 6.027c0 0-.979-.824-6.619-1.36z" fill="#fff"/><path d="M76.713 72.33l-.983.605 1.169.655-1.075.936 1.122.795-1.216 1.075 1.076.749-.842.795.842.655-1.123.795.32.213c2.78-.485 4.237-1.636 4.398-3.66-.09-2.315-1.817-3.258-3.688-3.613z" fill="#ececec"/><path d="M16.277 66.47l59.529-.102-20.003 13.549-55.806-2.46z" fill="#e6e6e6"/><path d="M7.861 82.43l1.156 8.272c.016.883 1.634 1.334 3.574 1.334s3.507-.748 3.507-1.631l-.825-7.644z" fill="#999"/><path d="M49.055 82.47l.691 10.763c-.042 1.14 1.68 1.852 3.78 2.008 2.101.152 3.85-.681 3.91-1.82l-.376-9.927zM69.229 73.47l.07 9.106c.433 1.27 2.703 1.21 2.703 1.21.926-.03 2.621-.428 2.73-1.167l-.007-11.548z" fill="gray"/><path d="M35.807 40.84s.702 1.57 2.038 1.403c1.336-.167 1.289-1.854 1.289-1.854.564 1.508 4.091 2.546 4.741-1.704" fill="none" stroke="#1a1a1a" stroke-width=".265"/><path d="M39.022 40.14c-.21.039-.398-.039-.561-.176-.177-.148-.494-.404-.392-.611 0 0 1.605-.33 1.73-.3.164.096-.128.487-.294.716-.12.166-.28.333-.483.371z" fill="#f2f2f2"/><path d="M36.197 36.51s-.574-1.136-2.646-.799c-1.244.203-1.52.732-1.52.732s.115.027.2.09c.33.245 1.175.845 2.242.594 1.292-.346 1.47-.566 1.47-.566z" fill="#f9f9f9" stroke="#1a1a1a" stroke-width=".173"/><path d="M33.63 35.71a.879.765 63.074 00-.202 1.088.879.765 63.074 00.366.39c.214.016.44 0 .68-.052.086-.023.156-.044.233-.066a.879.765 63.074 00.081-.97l-.007-.014a.879.765 63.074 00-.444-.425 4.438 4.438 0 00-.707.05z"/><path d="M34.343 36.806a.245.237-8.824 01-.204.271.245.237-8.824 01-.279-.194.245.237-8.824 01.202-.274.245.237-8.824 01.28.193" fill="#fff"/><path d="M40.88 35.95s.198-1.464 2.599-1.882c1.442-.251 1.946.225 1.946.225s-.116.072-.186.176c-.269.393-.968 1.372-2.233 1.503-1.549.111-1.829-.062-1.829-.062z" fill="#f9f9f9" stroke="#1a1a1a" stroke-width=".201"/><path d="M42.877 34.21c-.233.068-.44.146-.623.233a.814.935-9.952 00-.225.841.814.935-9.952 00.526.713c.138-.006.284-.014.451-.026a2.62 2.62 0 00.292-.048.814.935-9.952 00.333-.928l-.003-.015a.814.935-9.952 00-.751-.77z"/><path d="M43.032 35.671a.239.246 3.45 01-.252.23.239.246 3.45 01-.224-.257.239.246 3.45 01.25-.233.239.246 3.45 01.226.256" fill="#fff"/><path d="M39.476 39.773a.256.136 18.12 01-.285.05.256.136 18.12 01-.202-.208.256.136 18.12 01.283-.052.256.136 18.12 01.205.208M38.656 39.601a.194.103-37.38 01-.09.2.194.103-37.38 01-.218.037.194.103-37.38 01.09-.2.194.103-37.38 01.217-.038" fill="#1a1a1a"/><path d="M50.63 13.26c1.083-2.27 1.774-4.667 1.774-4.667s2.953.592 4.845 6.027c0 0-.979-.824-6.619-1.36z" fill="#e6e6e6"/><g fill="none" stroke="#000" stroke-width=".265"><path d="M27.252 18.86c-1.058.265-2.91-.53-3.175-1.587M27.517 18.34c-2.117-.794-2.381-2.117-2.381-2.117M52.652 13.04s1.323-1.058.265-3.175M53.446 13.31s1.598-1.224 1.058-2.646"/></g><path d="M-.003 77.46l1.646 4.733 54.302 2.947-.143-5.221z" fill="#b3b3b3"/><path d="M55.945 85.14l20.018-14.266-.158-4.505-20.003 13.55z" fill="gray"/><g fill="none" stroke="#000"><path d="M78.052 77.6s1.323.265 1.852-.265M78.317 76.28s1.587.265 1.852-.265" stroke-width=".265"/><path d="M78.317 74.96s1.36.265 1.587-.265" stroke-width=".245"/></g></svg>