<svg xmlns="http://www.w3.org/2000/svg" width="62" height="44" viewBox="12 0 138 128"><path fill="#ffffff" d="M68.4 81.8c-.6-.4-.9-1.1-.9-1.8v-4.1c-1.9 2.6-4.4 4.6-7.4 6-.3.1-.5.2-.8.3h9.9c-.3-.1-.5-.2-.8-.4zM2.3 80.7c-.8-.8-1.5-1.6-1.9-2.6v4.1h4.3c-.9-.4-1.6-.9-2.4-1.5zM62.1 67.2c2.5-2.9 3.8-6.6 3.8-11.1 0-4.4-1.3-8-3.8-10.9-2.5-2.9-5.7-4.3-9.6-4.3-3.8 0-7 1.4-9.5 4.3s-3.8 6.5-3.8 10.9c0 4.5 1.2 8.2 3.8 11.1 2.5 2.9 5.7 4.3 9.6 4.3s7-1.5 9.5-4.3zM83 82.2h12.3c-1.8-.7-3.4-1.7-4.8-2.9-1.3-1.1-2.3-2.4-3.1-3.8-.1.2-.1.3-.1.5 0 2.3-.6 4-1.7 5-.6.6-1.5 1-2.6 1.2zM110 72.2c2.7 0 5.2-.4 7.6-1.2 2.4-.8 4.7-2 7-3.6v-9c-2-.4-3.7-.7-5.4-1-1.6-.2-3.2-.3-4.6-.3-4.3 0-7.7.7-10.1 2.2-2.4 1.4-3.7 3.4-3.7 6 0 2.3.8 4 2.3 5.2 1.7 1.1 4 1.7 6.9 1.7z"/><path fill="#ffffff" d="M.4 0v70.3c.5-1 1.1-1.8 1.9-2.6 1.9-1.7 4.2-2.5 7.2-2.5s5.4.8 7.2 2.5c1.8 1.7 2.8 3.8 2.8 6.5 0 2.6-.9 4.8-2.8 6.5-.7.6-1.5 1.2-2.4 1.6h25.6c-3.4-1.3-6.5-3.3-9.2-6.1C25.5 71 23 64.5 23 56.7c0-8.1 2.6-14.9 7.8-20.2 5.2-5.3 11.8-8 19.9-8 2.8 0 5.5.5 8.1 1.4 2.6.9 5 2.2 7.2 3.9v-15h-7.8c-2.7 0-4.6-.5-5.7-1.6-1.1-1-1.7-2.7-1.7-5s.6-4 1.7-5 3-1.5 5.7-1.5h18.2c1.3 0 2.2.3 2.7.8s.7 1.6.7 3v60h1c2 0 3.5.5 4.6 1.5-.3-1.5-.5-3-.5-4.7 0-5.9 2.3-10.4 7-13.7 4.6-3.2 11.2-4.9 19.6-4.9 1.9 0 3.9.1 6 .3 2.1.2 4.5.5 7.1.9v-1.1c0-3.5-.8-6.2-2.5-8-1.7-1.8-4.2-2.8-7.5-2.8-2.6 0-5.9 1-9.9 2.9s-6.9 2.9-8.8 2.9c-1.8 0-3.3-.5-4.5-1.6-1.1-1.1-1.7-2.5-1.7-4.2 0-3.2 2.3-5.7 6.9-7.5 4.6-1.9 10.9-2.8 18.9-2.8 8.3 0 14.3 1.6 17.9 4.8 3.6 3.2 5.4 8.6 5.4 16.3v21.7h.9c2.1 0 3.7.6 4.8 1.7s1.7 2.7 1.7 4.8c0 2.3-.6 3.9-1.7 4.9-.7.6-1.6 1-2.7 1.2h11.1V0H.4z"/><path fill="#ffffff" d="M129 81.4c-1-.7-1.7-2.1-2.4-4-3.2 2.1-6.6 3.7-10.2 4.9h14.3c-.6-.3-1.2-.5-1.7-.9z"/><path class="logo-text" fill="#ffffff" d="M21.8 123.1c-.3 0-.6-.1-.7-.3-.1-.2-.2-.5-.2-1v-2c-1 1.2-2.2 2.2-3.7 2.9-1.5.7-3.1 1-4.9 1-3.1 0-5.8-1.1-7.9-3.3-2.1-2.2-3.2-5-3.2-8.3 0-3.4 1.1-6.3 3.4-8.6s5.1-3.4 8.4-3.4c1.7 0 3.2.3 4.6.9 1.4.6 2.5 1.5 3.5 2.7v-9.5h-1.3c-1.4 0-2.4-.1-2.8-.4-.4-.3-.6-.7-.6-1.4 0-.6.2-1 .5-1.3.3-.3.8-.4 1.5-.4h5.1c.5 0 .9.1 1.1.2.2.2.3.4.3.8v28.1H26c.8 0 1.4.1 1.8.4.4.3.5.7.5 1.3 0 .6-.2 1-.5 1.3-.3.3-.7.5-1.3.5h-4.7zM5.5 112c0 2.3.7 4.2 2.2 5.6 1.5 1.5 3.4 2.2 5.6 2.2 2.3 0 4.2-.8 5.7-2.3 1.5-1.5 2.2-3.4 2.2-5.8 0-2.3-.7-4.2-2.2-5.7-1.5-1.5-3.4-2.2-5.7-2.2-2.3 0-4.2.8-5.7 2.3-1.4 1.4-2.1 3.4-2.1 5.9zM45.7 120c-1.4 1.2-2.8 2.2-4.4 2.8s-3.2 1-4.9 1c-2.5 0-4.5-.7-6-2.1-1.5-1.4-2.3-3.2-2.3-5.4 0-2.6 1-4.7 3-6.1 2-1.4 4.9-2.2 8.5-2.2 1 0 1.9.1 2.9.2s2 .3 3 .6v-.2c0-1.9-.5-3.3-1.4-4.2-.9-.9-2.3-1.4-4.3-1.4-1.3 0-2.7.3-4.3 1s-2.6 1-3.2 1c-.5 0-.9-.2-1.2-.6-.3-.4-.5-.9-.5-1.5 0-1 .9-1.8 2.8-2.5 1.8-.7 4.2-1 7-1 2.9 0 5.1.7 6.6 2.2 1.5 1.5 2.2 3.7 2.2 6.6v11.3h1.2c1.2 0 2 .1 2.4.4s.6.7.6 1.3c0 .6-.2 1-.5 1.3-.3.3-.8.4-1.5.4h-3.9c-.5 0-.8-.1-1.1-.4-.3-.3-.5-.7-.6-1.2l-.1-1.3zm-.2-7.9c-.9-.3-1.8-.5-2.7-.7-.9-.1-1.7-.2-2.6-.2-2.6 0-4.6.4-6.1 1.3s-2.2 2-2.2 3.5c0 1.1.5 2.1 1.4 2.8.9.7 2.1 1.1 3.5 1.1 2.1 0 4.1-.6 5.9-1.7s2.7-2.3 2.7-3.4v-2.7zM67.7 119.6h8c.6 0 1.1.1 1.4.4.3.3.5.7.5 1.3 0 .7-.1 1.2-.4 1.4-.3.3-.8.4-1.6.4H56.2c-.7 0-1.2-.1-1.5-.4-.3-.3-.5-.7-.5-1.3 0-.6.2-1 .5-1.3.3-.3.9-.4 1.6-.4h7.6v-16H59c-.7 0-1.2-.2-1.6-.5-.4-.3-.5-.7-.5-1.3 0-.6.2-1 .5-1.3.3-.3.8-.4 1.5-.4h7.3c.4 0 .8.1 1.1.3.3.2.4.4.4.7v18.4zM63.1 93c0-1.8.2-2.9.5-3.4s1-.7 2.1-.7c1 0 1.7.2 2 .6.3.4.5 1.3.5 2.8 0 1.4-.2 2.3-.5 2.7-.3.3-1 .5-2.1.5s-1.8-.2-2.1-.5c-.3-.4-.4-1.1-.4-2zM79.1 121.3v-4.4c0-.7.1-1.3.4-1.6.3-.3.7-.5 1.3-.5.7 0 1.2.5 1.6 1.4.3.6.5 1 .7 1.3.7.9 1.7 1.6 3.1 2.2 1.4.5 2.9.8 4.5.8 1.8 0 3.2-.4 4.2-1.1 1.1-.7 1.6-1.7 1.6-2.8 0-1.2-.4-2-1.3-2.5s-2.3-.7-4.4-.7h-1.4c-3.4 0-6-.6-7.7-1.8-1.8-1.2-2.7-2.9-2.7-5.1 0-2.2.9-3.9 2.6-5.1 1.7-1.2 4.2-1.8 7.3-1.8 1.3 0 2.6.2 3.9.5 1.3.4 2 .5 2.1.5.2 0 .5-.2 1-.5s1-.5 1.5-.5c.6 0 1 .2 1.3.6.3.4.4 1 .4 1.9v2.9c0 .9-.1 1.5-.4 1.9-.3.4-.7.6-1.3.6-.5 0-1.1-.4-1.8-1.3-.5-.6-.9-1-1.3-1.3-.9-.8-1.8-1.4-2.8-1.8s-2.2-.5-3.5-.5c-1.6 0-2.8.3-3.8 1s-1.4 1.6-1.4 2.6.5 1.8 1.5 2.2c1 .4 3.1.7 6.3.8 3.5.1 6 .7 7.6 1.8 1.6 1.1 2.4 2.9 2.4 5.2 0 2.2-.9 4-2.6 5.4-1.8 1.3-4.1 2-7.1 2-.9 0-2-.1-3.2-.3-1.2-.2-2.6-.5-4.4-.9-.6.4-1.1.7-1.5.9-.4.2-.8.3-1 .3-.6 0-1-.2-1.3-.6-.3-.3-.4-.9-.4-1.7zM104.9 119.6V94.1h-.5c-1.1 0-1.9-.1-2.3-.4-.4-.3-.6-.7-.6-1.4 0-.6.2-1 .5-1.3.3-.3.8-.4 1.5-.4h3.8c.4 0 .8.1 1 .3.2.2.4.4.4.7v11.3c1.2-1.1 2.4-2 3.6-2.5s2.4-.8 3.7-.8c2.5 0 4.5.8 5.9 2.3 1.4 1.6 2.2 3.7 2.2 6.5v11.3h1.2c.8 0 1.4.1 1.8.4.4.3.6.7.6 1.3s-.2 1-.5 1.3c-.3.3-.8.4-1.5.4h-6.6c-.8 0-1.3-.1-1.6-.4s-.4-.7-.4-1.4.2-1.1.5-1.4c.3-.2 1-.4 1.9-.4h.9v-10.4c0-1.9-.4-3.4-1.3-4.4-.9-1-2.2-1.5-3.8-1.5-1.7 0-3.2.6-4.5 1.7-1.3 1.1-1.9 2.6-1.9 4.3v10.4h.9c1 0 1.7.1 2 .4.3.2.5.7.5 1.3 0 .7-.1 1.2-.4 1.4-.3.3-.8.4-1.6.4h-6.6c-.6 0-1.1-.1-1.5-.4-.3-.3-.5-.7-.5-1.3 0-.7.2-1.1.6-1.4.4-.2 1.1-.4 2.3-.4h.3zM152.5 111.7c0 3.6-1.2 6.5-3.6 8.7-2.4 2.3-5.6 3.4-9.4 3.4-3.9 0-7-1.1-9.4-3.4-2.4-2.3-3.6-5.2-3.6-8.7 0-3.6 1.2-6.5 3.6-8.7 2.4-2.2 5.6-3.4 9.4-3.4s7 1.1 9.4 3.4c2.3 2.2 3.6 5.1 3.6 8.7zm-13.1 8.5c2.6 0 4.7-.8 6.3-2.4 1.6-1.6 2.5-3.7 2.5-6.2s-.8-4.6-2.5-6.2c-1.6-1.6-3.7-2.4-6.3-2.4s-4.6.8-6.3 2.4c-1.6 1.6-2.5 3.7-2.5 6.2s.8 4.6 2.4 6.2c1.7 1.6 3.8 2.4 6.4 2.4z"/></svg>