<svg width="320" height="4680" viewBox="0 0 84.667 1238.3" xmlns="http://www.w3.org/2000/svg"><path d="M63.055 1208.82l-16.557.327 3.976 7.437z" fill="#333"/><path d="M49.958 1215.79l8.887-5.285-11.6.187z" fill="#666"/><path d="M61.261 1193.48s-.421 2.993-1.824 3.788c-5.005 3.181-10.524 3.602-13.657 6.128-1.684 1.45-1.707 4.046-1.567 4.28 1.075.93.747 2.84 3.148 3.851.888-.42 2.257-1.881 2.16-3.835 7.563.734 16.4-3.378 19.832-6.962" fill="#1a1a1a" stroke="#000" stroke-width=".265"/><path d="M45.338 1203.839c-1.24 1.48-1.251 3.614-1.125 3.825 1.076.93.748 2.84 3.148 3.852.889-.421 2.258-1.881 2.161-3.835l-1.113.343-.187-1.216-1.262.047-.094-1.777-1.216.046z" fill="#ececec" stroke="#1a1a1a" stroke-width=".26458"/><path d="M2.952 1194.92l33.957-.094 12.816 23.901-34.705-1.45z" fill="#333"/><path d="M2.952 1194.92l1.076-1.45 34.19-.14-1.31 1.497z" fill="#4d4d4d"/><path d="M38.219 1193.32l12.254 23.292 12.582-7.764.094 1.917-13.424 7.952-12.816-23.901z" fill="#1a1a1a"/><path d="M17.467 1203.22l9.528.066 2.114 5.622-9.2-.132z" fill="#ff0"/><g stroke-width=".265" aria-label="DEV"><path d="M20.766 1207.656h.577c.815 0 1.054-.557.656-1.516-.396-.955-1.09-1.495-1.924-1.495h-.56zm.302-.316l-.988-2.38h.182c.53 0 .972.414 1.29 1.18.317.762.228 1.2-.302 1.2zM23.206 1207.656h1.677l-.135-.324h-1.243l-.454-1.094h1.001l-.134-.323h-1.002l-.39-.943h1.2l-.135-.328h-1.635zM26.03 1207.656h.54l-.481-3.012h-.433l.315 1.635c.069.357.135.652.195 1.008h-.024c-.232-.356-.415-.651-.642-1.008l-1.041-1.635h-.448z"/></g><path d="M63.055 1113.57l-16.557.327 3.976 7.437z" fill="#333"/><path d="M49.958 1120.54l8.887-5.285-11.6.187z" fill="#666"/><path d="M60.983 1098.94s-.054 3.022-1.35 3.982c-4.58 3.766-10.008 4.854-12.81 7.742-1.496 1.644-1.204 4.224-1.036 4.439 1.18.793 1.087 2.728 3.593 3.44.83-.525 2.012-2.141 1.678-4.069 7.596-.19 15.866-5.347 18.838-9.322" fill="#1a1a1a" stroke="#000" stroke-width=".265"/><path d="M46.468 1111.12c-1.085 1.625-.834 3.78-.681 3.977 1.18.793 1.087 2.728 3.592 3.44.831-.526 2.013-2.141 1.679-4.069l-1.948.333.047-1.075H47.52l.28-1.357h-1.45z" fill="#e6e6e6" stroke="#1a1a1a" stroke-width=".265"/><path d="M2.952 1099.67l33.957-.094 12.816 23.901-34.705-1.45z" fill="#333"/><path d="M2.952 1099.67l1.076-1.45 34.19-.14-1.31 1.497z" fill="#4d4d4d"/><path d="M38.219 1098.07l12.254 23.292 12.582-7.764.094 1.917-13.424 7.952-12.816-23.901z" fill="#1a1a1a"/><path d="M17.467 1107.97l9.528.066 2.114 5.622-9.2-.132z" fill="#ff0"/><g stroke-width=".265" aria-label="DEV"><path d="M20.766 1112.406h.577c.815 0 1.054-.557.656-1.516-.396-.955-1.09-1.495-1.924-1.495h-.56zm.302-.316l-.988-2.38h.182c.53 0 .972.414 1.29 1.18.317.762.228 1.2-.302 1.2zM23.206 1112.406h1.677l-.135-.324h-1.243l-.454-1.094h1.001l-.134-.323h-1.002l-.39-.943h1.2l-.135-.328h-1.635zM26.03 1112.406h.54l-.481-3.012h-.433l.315 1.635c.069.357.135.652.195 1.008h-.024c-.232-.356-.415-.651-.642-1.008l-1.041-1.635h-.448z"/></g><g><path d="M63.055 1018.32l-16.557.327 3.976 7.437z" fill="#333"/><path d="M49.958 1025.29l8.887-5.285-11.6.187z" fill="#666"/><path d="M61.261 1002.98s-.421 2.993-1.824 3.788c-5.005 3.181-10.524 3.602-13.657 6.128-1.684 1.45-1.707 4.046-1.567 4.28 1.075.93.747 2.84 3.148 3.851.888-.42 2.257-1.881 2.16-3.835 7.563.734 16.4-3.378 19.832-6.962" fill="#1a1a1a" stroke="#000" stroke-width=".265"/><path d="M45.338 1013.35c-1.24 1.48-1.252 3.614-1.125 3.825 1.075.93.747 2.84 3.148 3.852.888-.421 2.258-1.881 2.16-3.835l-1.112.343-.187-1.216-1.262.047-.094-1.777-1.217.046z" fill="#ececec" stroke="#1a1a1a" stroke-width=".265"/><path d="M2.952 1004.42l33.957-.094 12.816 23.901-34.705-1.45z" fill="#333"/><path d="M2.952 1004.42l1.076-1.45 34.19-.14-1.31 1.497z" fill="#4d4d4d"/><path d="M38.219 1002.82l12.254 23.292 12.582-7.764.094 1.917-13.424 7.952-12.816-23.901z" fill="#1a1a1a"/><path d="M17.467 1012.72l9.528.066 2.114 5.623-9.2-.133z" fill="#ff0"/><g stroke-width=".265" aria-label="DEV"><path d="M20.766 1017.156h.577c.815 0 1.054-.557.656-1.516-.396-.955-1.09-1.495-1.924-1.495h-.56zm.302-.316l-.988-2.38h.182c.53 0 .972.414 1.29 1.18.317.762.228 1.2-.302 1.2zM23.206 1017.156h1.677l-.135-.324h-1.243l-.454-1.094h1.001l-.134-.323h-1.002l-.39-.943h1.2l-.135-.328h-1.635zM26.03 1017.156h.54l-.481-3.012h-.433l.315 1.635c.069.357.135.652.195 1.008h-.024c-.232-.356-.415-.651-.642-1.008l-1.041-1.635h-.448z"/></g></g><g><path d="M63.055 923.07l-16.557.327 3.976 7.437z" fill="#333"/><path d="M49.958 930.04l8.887-5.285-11.6.187z" fill="#666"/><path d="M60.983 908.44s-.054 3.022-1.35 3.982c-4.58 3.766-10.008 4.855-12.81 7.743-1.496 1.643-1.204 4.223-1.036 4.438 1.18.793 1.087 2.729 3.593 3.44.83-.525 2.012-2.141 1.678-4.069 7.596-.19 15.866-5.347 18.838-9.322" fill="#1a1a1a" stroke="#000" stroke-width=".265"/><path d="M46.468 920.62c-1.085 1.625-.834 3.78-.681 3.977 1.18.793 1.087 2.728 3.592 3.44.831-.526 2.013-2.141 1.679-4.069l-1.948.333.047-1.075H47.52l.28-1.357h-1.45z" fill="#e6e6e6" stroke="#1a1a1a" stroke-width=".265"/><path d="M2.952 909.17l33.957-.094 12.816 23.901-34.705-1.45z" fill="#333"/><path d="M2.952 909.17l1.076-1.45 34.19-.14-1.31 1.497z" fill="#4d4d4d"/><path d="M38.219 907.57l12.254 23.292 12.582-7.764.094 1.918-13.424 7.95-12.816-23.9z" fill="#1a1a1a"/><path d="M17.467 917.47l9.528.066 2.114 5.623-9.2-.133z" fill="#ff0"/><g stroke-width=".265" aria-label="DEV"><path d="M20.766 921.906h.577c.815 0 1.054-.557.656-1.516-.396-.955-1.09-1.495-1.924-1.495h-.56zm.302-.316l-.988-2.38h.182c.53 0 .972.414 1.29 1.18.317.762.228 1.2-.302 1.2zM23.206 921.906h1.677l-.135-.324h-1.243l-.454-1.094h1.001l-.134-.323h-1.002l-.39-.943h1.2l-.135-.328h-1.635zM26.03 921.906h.54l-.481-3.012h-.433l.315 1.635c.069.357.135.652.195 1.008h-.024c-.232-.356-.415-.651-.642-1.008l-1.041-1.635h-.448z"/></g></g><g><path d="M63.055 827.82l-16.557.327 3.976 7.437z" fill="#333"/><path d="M49.958 834.79l8.887-5.285-11.6.187z" fill="#666"/><path d="M61.261 812.48s-.421 2.993-1.824 3.788c-5.005 3.181-10.524 3.602-13.657 6.128-1.684 1.45-1.707 4.046-1.567 4.28 1.075.93.747 2.84 3.148 3.851.888-.42 2.257-1.881 2.16-3.835 7.563.734 16.4-3.378 19.832-6.962" fill="#1a1a1a" stroke="#000" stroke-width=".265"/><path d="M45.338 822.85c-1.24 1.48-1.252 3.614-1.125 3.825 1.075.93.747 2.84 3.148 3.852.888-.421 2.258-1.881 2.16-3.835l-1.112.343-.187-1.216-1.262.047-.094-1.777-1.217.046z" fill="#ececec" stroke="#1a1a1a" stroke-width=".265"/><path d="M2.952 813.92l33.957-.094 12.816 23.901-34.705-1.45z" fill="#333"/><path d="M2.952 813.92l1.076-1.45 34.19-.14-1.31 1.497z" fill="#4d4d4d"/><path d="M38.219 812.32l12.254 23.292 12.582-7.764.094 1.918-13.424 7.95-12.816-23.9z" fill="#1a1a1a"/><path d="M17.467 822.22l9.528.066 2.114 5.623-9.2-.133z" fill="#ff0"/><g stroke-width=".265" aria-label="DEV"><path d="M20.766 826.656h.577c.815 0 1.054-.557.656-1.516-.396-.955-1.09-1.495-1.924-1.495h-.56zm.302-.316l-.988-2.38h.182c.53 0 .972.414 1.29 1.18.317.762.228 1.2-.302 1.2zM23.206 826.656h1.677l-.135-.324h-1.243l-.454-1.094h1.001l-.134-.323h-1.002l-.39-.943h1.2l-.135-.328h-1.635zM26.03 826.656h.54l-.481-3.012h-.433l.315 1.635c.069.357.135.652.195 1.008h-.024c-.232-.356-.415-.651-.642-1.008l-1.041-1.635h-.448z"/></g></g><g><path d="M63.055 732.57l-16.557.327 3.976 7.437z" fill="#333"/><path d="M49.958 739.54l8.887-5.285-11.6.187z" fill="#666"/><path d="M60.983 717.94s-.054 3.022-1.35 3.982c-4.58 3.766-10.008 4.855-12.81 7.743-1.496 1.643-1.204 4.223-1.036 4.438 1.18.793 1.087 2.729 3.593 3.44.83-.525 2.012-2.141 1.678-4.069 7.596-.19 15.866-5.347 18.838-9.322" fill="#1a1a1a" stroke="#000" stroke-width=".265"/><path d="M46.468 730.12c-1.085 1.625-.834 3.78-.681 3.977 1.18.793 1.087 2.728 3.592 3.44.831-.526 2.013-2.141 1.679-4.069l-1.948.333.047-1.075H47.52l.28-1.357h-1.45z" fill="#e6e6e6" stroke="#1a1a1a" stroke-width=".265"/><path d="M2.952 718.67l33.957-.094 12.816 23.901-34.705-1.45z" fill="#333"/><path d="M2.952 718.67l1.076-1.45 34.19-.14-1.31 1.496z" fill="#4d4d4d"/><path d="M38.219 717.07l12.254 23.292 12.582-7.764.094 1.918-13.424 7.95-12.816-23.9z" fill="#1a1a1a"/><path d="M17.467 726.97l9.528.066 2.114 5.622-9.2-.132z" fill="#ff0"/><g stroke-width=".265" aria-label="DEV"><path d="M20.766 731.406h.577c.815 0 1.054-.557.656-1.516-.396-.955-1.09-1.495-1.924-1.495h-.56zm.302-.316l-.988-2.38h.182c.53 0 .972.414 1.29 1.18.317.762.228 1.2-.302 1.2zM23.206 731.406h1.677l-.135-.324h-1.243l-.454-1.094h1.001l-.134-.323h-1.002l-.39-.943h1.2l-.135-.328h-1.635zM26.03 731.406h.54l-.481-3.012h-.433l.315 1.635c.069.357.135.652.195 1.008h-.024c-.232-.356-.415-.651-.642-1.008l-1.041-1.635h-.448z"/></g></g><g><path d="M63.055 637.32l-16.557.327 3.976 7.437z" fill="#333"/><path d="M49.958 644.29l8.887-5.285-11.6.187z" fill="#666"/><path d="M61.261 621.98s-.421 2.993-1.824 3.788c-5.005 3.181-10.524 3.602-13.657 6.128-1.684 1.45-1.707 4.046-1.567 4.28 1.075.93.747 2.84 3.148 3.851.888-.42 2.257-1.881 2.16-3.835 7.563.734 16.4-3.378 19.832-6.962" fill="#1a1a1a" stroke="#000" stroke-width=".265"/><g fill="#f2f2f2" transform="translate(0 285.75)"><path transform="matrix(.80961 .58696 -.5596 .82876 0 0)" d="M207.87 254.4c.034.922.013 2.1-1.097 2.138-.565 0-1.02-.518-1.02-1.162v-.921c0-.644.456-1.173 1.016-1.272.498-.087 1.25-.194 1.244.478" stroke="#1a1a1a" stroke-width=".265"/><path d="M32.015 332.05c1.109-.81 1.852-1.323 2.646-.794 1.058 1.323-1.058 1.059-1.852 2.91-.265.53.793 2.117.793 2.117 1.791 2.72-5.027 1.588-6.35.794 0 0-1.852-1.323-1.587-2.646.265-1.323 0-1.058 0-1.058" stroke="#000" stroke-width=".265"/><path d="M28.31 330.73h2.91l.265 1.852-3.175.794-.265-.265.265-2.381"/><path d="M28.31 330.99s.265-1.058.794-1.323c.529-.264 1.323-.53 2.38.53 1.06 1.322.53 2.116-.264 2.38-.793 0-1.058-.793-1.587-1.587" stroke="#000" stroke-width=".265"/><rect transform="matrix(.98708 .16021 -.11676 .99316 0 0)" x="64.988" y="321.93" width="2.042" height="3.369" rx="1.021" ry="1.206" stroke="#1a1a1a" stroke-width=".265"/></g><path d="M45.338 632.35c-1.24 1.48-1.252 3.614-1.125 3.825 1.075.93.747 2.84 3.148 3.852.888-.421 2.258-1.881 2.16-3.835l-1.112.343-.187-1.216-1.262.047-.094-1.777-1.217.046z" fill="#ececec" stroke="#1a1a1a" stroke-width=".265"/><path d="M2.952 623.42l33.957-.094 12.816 23.901-34.705-1.45z" fill="#333"/><path d="M2.952 623.42l1.076-1.45 34.19-.14-1.31 1.496z" fill="#4d4d4d"/><path d="M38.219 621.82l12.254 23.292 12.582-7.764.093 1.918-13.424 7.95-12.816-23.9z" fill="#1a1a1a"/><path d="M17.467 631.72l9.528.066 2.114 5.622-9.2-.132z" fill="#ff0"/><g stroke-width=".265" aria-label="DEV"><path d="M20.766 636.156h.577c.815 0 1.054-.557.656-1.516-.396-.955-1.09-1.495-1.924-1.495h-.56zm.302-.316l-.988-2.38h.182c.53 0 .972.414 1.29 1.18.317.762.228 1.2-.302 1.2zM23.206 636.156h1.677l-.135-.324h-1.243l-.454-1.094h1.001l-.134-.323h-1.002l-.39-.943h1.2l-.135-.328h-1.635zM26.03 636.156h.54l-.481-3.012h-.433l.315 1.635c.069.357.135.652.195 1.008h-.024c-.232-.356-.415-.651-.642-1.008l-1.041-1.635h-.448z"/></g></g><g><path d="M63.055 542.07l-16.557.327 3.976 7.437z" fill="#333"/><path d="M49.958 549.04l8.887-5.285-11.6.187z" fill="#666"/><path d="M60.983 527.44s-.054 3.022-1.35 3.982c-4.58 3.766-10.008 4.855-12.81 7.743-1.496 1.643-1.204 4.223-1.036 4.438 1.18.793 1.087 2.729 3.593 3.44.83-.525 2.012-2.141 1.678-4.069 7.596-.19 15.866-5.347 18.838-9.322" fill="#1a1a1a" stroke="#000" stroke-width=".265"/><g transform="translate(0 191.558)" fill="#f2f2f2"><path transform="matrix(.80961 .58696 -.5596 .82876 0 0)" d="M207.87 254.4c.034.922.013 2.1-1.097 2.138-.565 0-1.02-.518-1.02-1.162v-.921c0-.644.456-1.173 1.016-1.272.498-.087 1.25-.194 1.244.478" stroke="#1a1a1a" stroke-width=".265"/><path d="M32.015 332.05c1.109-.81 1.852-1.323 2.646-.794 1.058 1.323-1.058 1.059-1.852 2.91-.265.53.793 2.117.793 2.117 1.791 2.72-5.027 1.588-6.35.794 0 0-1.852-1.323-1.587-2.646.265-1.323 0-1.058 0-1.058" stroke="#000" stroke-width=".265"/><path d="M28.31 330.73h2.91l.265 1.852-3.175.794-.265-.265.265-2.381"/><path d="M28.31 330.99s.265-1.058.794-1.323c.529-.264 1.323-.53 2.38.53 1.06 1.322.53 2.116-.264 2.38-.793 0-1.058-.793-1.587-1.587" stroke="#000" stroke-width=".265"/><rect transform="matrix(.98708 .16021 -.11676 .99316 0 0)" x="64.988" y="321.93" width="2.042" height="3.369" rx="1.021" ry="1.206" stroke="#1a1a1a" stroke-width=".265"/></g><path d="M46.468 539.62c-1.085 1.625-.834 3.78-.681 3.977 1.18.793 1.087 2.728 3.592 3.44.831-.526 2.013-2.141 1.679-4.069l-1.948.333.047-1.075H47.52l.28-1.357h-1.45z" fill="#e6e6e6" stroke="#1a1a1a" stroke-width=".265"/><path d="M2.952 528.17l33.957-.094 12.816 23.901-34.705-1.45z" fill="#333"/><path d="M2.952 528.17l1.076-1.45 34.19-.14-1.31 1.496z" fill="#4d4d4d"/><path d="M38.219 526.57l12.254 23.292 12.582-7.764.094 1.918-13.424 7.95-12.816-23.9z" fill="#1a1a1a"/><path d="M17.467 536.47l9.528.066 2.114 5.622-9.2-.132z" fill="#ff0"/><g stroke-width=".265" aria-label="DEV"><path d="M20.766 540.906h.577c.815 0 1.054-.557.656-1.516-.396-.955-1.09-1.495-1.924-1.495h-.56zm.302-.316l-.988-2.38h.182c.53 0 .972.414 1.29 1.18.317.762.228 1.2-.302 1.2zM23.206 540.906h1.677l-.135-.324h-1.243l-.454-1.094h1.001l-.134-.323h-1.002l-.39-.943h1.2l-.135-.328h-1.635zM26.03 540.906h.54l-.481-3.012h-.433l.315 1.635c.069.357.135.652.195 1.008h-.024c-.232-.356-.415-.651-.642-1.008l-1.041-1.635h-.448z"/></g></g><g transform="translate(0 285.75)"><path d="M63.055 161.07l-16.557.327 3.976 7.437z" fill="#333"/><path d="M49.958 168.04l8.887-5.285-11.6.187z" fill="#666"/><g stroke="#000" stroke-width=".265"><path d="M18.521 139.7s-1.058-1.587-1.058-2.646c0-.794 1.058-.794 1.323-.529.529.265.775 1.512 1.323 2.117.264.264.793.529.793.529l.794.264h.53l.528 7.938s-2.861.343-4.233 0c-1.058-.265-2.117-1.058-2.117-1.058" fill="#f2f2f2" opacity=".919"/><path d="M20.373 143.4l.53.794v.794l-.53.529h-2.117" fill="none" opacity=".919"/><path d="M16.404 146.58s-.53-4.498-.265-5.292c.412-1.33 2.382-1.852 3.97-1.587" fill="#ececec" opacity=".919"/><path d="M17.992 141.55c1.706-.154 2.646 0 2.91.53.265.793-.264 1.057-.529 1.322-.187.187-2.381.265-2.381.265" fill="none" opacity=".919"/><path d="M19.315 140.49s.794 4.763 1.852 6.085c1.058 1.323 7.144 0 7.144 0s.53-.793.53-2.116-.266-5.292-.266-5.292" fill="#ff0" opacity=".919"/></g><ellipse transform="matrix(.9891 -.14728 .22303 .97481 0 0)" cx="-7.846" cy="142.23" rx="4.604" ry="1.449" fill="#f2f2f2" stroke="#1a1a1a" stroke-width=".265"/><path d="M27.781 139.96c0 .53-1.587.794-3.466 1.27-1.93.49-3.78.261-3.942-.212-.162-.473 1.391-1.182 3.357-1.5 1.965-.319 3.89-.031 4.051.442zM63.055 161.07l-16.557.327 3.976 7.437z" fill="#333"/><path d="M49.958 168.04l8.887-5.285-11.6.187z" fill="#666"/><g stroke="#000" stroke-width=".265"><path d="M18.521 139.7s-1.058-1.587-1.058-2.646c0-.794 1.058-.794 1.323-.529.529.265.775 1.512 1.323 2.117.264.264.793.529.793.529l.794.264h.53l.528 7.938s-2.861.343-4.233 0c-1.058-.265-2.117-1.058-2.117-1.058" fill="#f2f2f2"/><path d="M20.373 143.4l.53.794v.794l-.53.529h-2.117" fill="none"/><path d="M16.404 146.58s-.53-4.498-.265-5.292c.412-1.33 2.382-1.852 3.97-1.587" fill="#ececec"/><path d="M17.992 141.55c1.706-.154 2.646 0 2.91.53.265.793-.264 1.057-.529 1.322-.187.187-2.381.265-2.381.265" fill="none"/><path d="M19.315 140.49s.794 4.763 1.852 6.085c1.058 1.323 7.144 0 7.144 0s.53-.793.53-2.116-.266-5.292-.266-5.292" fill="#ff0"/></g><ellipse transform="matrix(.9891 -.14728 .22303 .97481 0 0)" cx="-7.846" cy="142.23" rx="4.604" ry="1.449" fill="#ff0" stroke="#1a1a1a" stroke-width=".265"/><path d="M27.781 139.96c0 .53-1.587.794-3.466 1.27-1.93.49-3.78.261-3.942-.212-.162-.473 1.391-1.182 3.357-1.5 1.965-.319 3.89-.031 4.051.442z" fill="#333"/><path d="M60.983 146.44s-.054 3.022-1.35 3.982c-4.58 3.766-10.008 4.855-12.81 7.743-1.496 1.643-1.204 4.223-1.036 4.438 1.18.793 1.087 2.728 3.593 3.44.83-.525 2.012-2.141 1.678-4.069 7.596-.19 15.866-5.347 18.838-9.322" fill="#1a1a1a" stroke="#000" stroke-width=".265"/><path d="M46.468 158.62c-1.085 1.625-.834 3.78-.681 3.977 1.18.793 1.087 2.728 3.592 3.44.831-.526 2.013-2.141 1.679-4.069l-1.948.333.047-1.075H47.52l.28-1.357h-1.45z" fill="#e6e6e6" stroke="#1a1a1a" stroke-width=".265"/><path d="M2.952 147.17l33.957-.094 12.816 23.901-34.705-1.45z" fill="#333"/><path d="M2.952 147.17l1.076-1.45 34.19-.14-1.31 1.496z" fill="#4d4d4d"/><path d="M38.219 145.57l12.254 23.292 12.582-7.764.094 1.917-13.424 7.952-12.816-23.901z" fill="#1a1a1a"/><path d="M17.467 155.47l9.528.066 2.114 5.622-9.2-.132z" fill="#ff0"/><g stroke-width=".265" aria-label="DEV"><path d="M20.766 159.906h.577c.815 0 1.054-.557.656-1.516-.396-.955-1.09-1.495-1.924-1.495h-.56zm.302-.316l-.988-2.38h.182c.53 0 .972.414 1.29 1.18.317.762.228 1.2-.302 1.2zM23.206 159.906h1.677l-.135-.324h-1.243l-.454-1.094h1.001l-.134-.323h-1.002l-.39-.943h1.2l-.135-.328h-1.635zM26.03 159.906h.54l-.481-3.012h-.433l.315 1.635c.069.357.135.652.195 1.008h-.024c-.232-.356-.415-.651-.642-1.008l-1.041-1.635h-.448z"/></g></g><g><path d="M38.659 325.352a.194.103-37.38 01-.09.2.194.103-37.38 01-.218.037.194.103-37.38 01.09-.2.194.103-37.38 01.217-.038" fill="#f9f9f9"/><path d="M63.055 351.571l-16.557.327 3.976 7.437z" fill="#333"/><path d="M49.958 358.54l8.887-5.285-11.6.187z" fill="#666"/><path d="M38.659 325.352a.194.103-37.38 01-.09.2.194.103-37.38 01-.218.037.194.103-37.38 01.09-.2.194.103-37.38 01.217-.038" fill="#f9f9f9"/><path d="M63.055 351.571l-16.557.327 3.976 7.437z" fill="#333"/><path d="M49.958 358.54l8.887-5.285-11.6.187z" fill="#666"/><path d="M22.49 336.815s1.058-5.82 2.646-7.144c1.29-3.208 2.646-4.498 4.498-4.762 1.852-.265 1.852.793 1.852 1.058s-1.059 3.969-1.059 3.969l-.264 3.44v3.704l-7.673-.265" fill="#f2f2f2" stroke="#000" stroke-width=".265"/><path d="M60.983 336.939s-.054 3.022-1.35 3.982c-4.58 3.766-10.008 4.855-12.81 7.743-1.496 1.643-1.204 4.223-1.036 4.438 1.18.793 1.087 2.729 3.593 3.44.83-.525 2.012-2.141 1.678-4.069 7.596-.19 15.866-5.347 18.838-9.322" fill="#1a1a1a" stroke="#000" stroke-width=".265"/><path d="M46.468 349.113c-1.085 1.626-.834 3.78-.68 3.977 1.18.793 1.086 2.728 3.592 3.44.83-.526 2.012-2.141 1.678-4.069l-1.948.333.047-1.075H47.52l.28-1.357h-1.45z" fill="#e6e6e6" stroke="#1a1a1a" stroke-width=".26458"/><path d="M24.348 330.74c-1.14 2.132-1.859 6.075-1.859 6.075l7.673.264v-3.704l.105-1.366-1.163-.685-1.158 1.257-1.257-1.29-1.157 1.39z" fill="#1a1a1a" stroke="#000" stroke-width=".265"/><path d="M29.369 329.406l2.381-4.233s2.381-2.91 5.292-1.323c2.91 1.587 2.117 5.027 2.117 5.027l-3.175 4.498s-1.852 2.381-4.763.794c-3.227-1.76-1.852-4.763-1.852-4.763z" fill="#ff0" stroke="#000" stroke-width=".265"/><g><path d="M2.952 337.67l33.957-.094 12.816 23.901-34.705-1.45z" fill="#333"/><path d="M2.952 337.67l1.076-1.45 34.19-.14-1.31 1.496z" fill="#4d4d4d"/><path d="M38.219 336.07l12.254 23.292 12.582-7.764.094 1.917-13.424 7.952-12.816-23.901z" fill="#1a1a1a"/><path d="M17.467 345.97l9.528.066 2.114 5.622-9.2-.132z" fill="#ff0"/><g stroke-width=".265" aria-label="DEV"><path d="M20.766 350.406h.577c.815 0 1.054-.557.656-1.516-.396-.955-1.09-1.495-1.924-1.495h-.56zm.302-.316l-.988-2.38h.182c.53 0 .972.414 1.29 1.18.317.762.228 1.2-.302 1.2zM23.206 350.406h1.677l-.135-.324h-1.243l-.454-1.094h1.001l-.134-.323h-1.002l-.39-.943h1.2l-.135-.328h-1.635zM26.03 350.406h.54l-.481-3.012h-.433l.315 1.635c.069.357.135.652.195 1.008h-.024c-.232-.356-.415-.651-.642-1.008l-1.041-1.635h-.448z"/></g></g><g stroke="#000" stroke-width=".265"><path d="M30.427 329.406s1.852-1.323 3.704 0 1.323 3.175 1.323 3.175" fill="none"/><path d="M28.046 326.76s1.058-1.058 2.117-.794c1.058.265.793 1.323.793 1.323s-.59 1.122-.826 1.24c-.53.265-1.555.083-1.555.083" fill="#f2f2f2"/><path d="M27.517 328.348s1.323-1.587 2.381-1.058c1.058.529 0 1.852-.264 2.116s-.53 1.059-.53 1.059" fill="#f2f2f2"/></g></g><g><path d="M38.66 230.103a.194.103-37.38 01-.092.199.194.103-37.38 01-.217.037.194.103-37.38 01.09-.2.194.103-37.38 01.217-.038" fill="#f9f9f9"/><path d="M63.055 256.321l-16.557.327 3.976 7.437z" fill="#333"/><path d="M49.958 263.29l8.887-5.285-11.6.187z" fill="#666"/><path d="M38.66 230.103a.194.103-37.38 01-.092.199.194.103-37.38 01-.217.037.194.103-37.38 01.09-.2.194.103-37.38 01.217-.038" fill="#f9f9f9"/><path d="M63.055 256.321l-16.557.327 3.976 7.437z" fill="#333"/><path d="M49.958 263.29l8.887-5.285-11.6.187z" fill="#666"/><g stroke-width=".265"><path d="M22.49 241.565s1.058-5.82 2.646-7.144c1.29-3.208 2.646-4.498 4.498-4.762 1.852-.265 1.852.793 1.852 1.058s-1.059 3.969-1.059 3.969l-.264 3.44v3.704l-7.673-.265" fill="#f2f2f2" stroke="#000"/><path d="M60.983 241.689s-.054 3.022-1.35 3.982c-4.58 3.766-10.008 4.855-12.81 7.743-1.496 1.643-1.204 4.223-1.036 4.438 1.18.793 1.087 2.729 3.593 3.44.83-.525 2.012-2.141 1.678-4.069 7.596-.19 15.866-5.347 18.838-9.322" fill="#1a1a1a" stroke="#000"/><path d="M46.468 253.875c-1.085 1.625-.834 3.78-.681 3.977 1.18.793 1.087 2.728 3.592 3.44.831-.526 2.013-2.141 1.679-4.069l-1.948.333.047-1.075H47.52l.28-1.357h-1.45z" fill="#e6e6e6" stroke="#1a1a1a"/></g><path d="M24.348 235.487c-1.14 2.132-1.859 6.074-1.859 6.074l7.673.265v-3.704l.105-1.367-1.163-.684-1.158 1.257-1.257-1.29-1.157 1.39z" fill="#1a1a1a" stroke="#000" stroke-width=".26458"/><path d="M29.369 234.156l2.381-4.233s2.381-2.91 5.292-1.323c2.91 1.587 2.117 5.027 2.117 5.027l-3.175 4.498s-1.852 2.381-4.763.794c-3.227-1.76-1.852-4.763-1.852-4.763z" fill="#ff0" stroke="#000" stroke-width=".265"/><g><path d="M2.952 242.45l33.957-.094 12.816 23.901-34.705-1.45z" fill="#333"/><path d="M2.952 242.45L4.028 241l34.19-.14-1.31 1.497z" fill="#4d4d4d"/><path d="M38.219 240.85l12.254 23.292 12.582-7.764.094 1.918-13.424 7.95-12.816-23.9z" fill="#1a1a1a"/><path d="M17.467 250.75l9.528.066 2.114 5.622-9.2-.132z" fill="#ff0"/><g stroke-width=".265" aria-label="DEV"><path d="M20.766 255.186h.577c.815 0 1.054-.557.656-1.516-.396-.955-1.09-1.495-1.924-1.495h-.56zm.302-.316l-.988-2.38h.182c.53 0 .972.414 1.29 1.18.317.762.228 1.2-.302 1.2zM23.206 255.186h1.677l-.135-.324h-1.243l-.454-1.094h1.001l-.134-.323h-1.002l-.39-.943h1.2l-.135-.328h-1.635zM26.03 255.186h.54l-.481-3.012h-.433l.315 1.635c.069.357.135.652.195 1.008h-.024c-.232-.356-.415-.651-.642-1.008l-1.041-1.635h-.448z"/></g></g><g stroke="#000" stroke-width=".265"><path d="M28.046 231.51s1.058-1.058 2.117-.794c1.058.265.793 1.323.793 1.323s-.59 1.122-.826 1.24c-.53.265-1.555.083-1.555.083" fill="#f2f2f2"/><path d="M27.517 233.098s1.323-1.587 2.381-1.058c1.058.529 0 1.852-.264 2.116s-.53 1.059-.53 1.059" fill="#f2f2f2"/><path d="M30.427 234.156s1.852-1.323 3.704 0 1.323 3.175 1.323 3.175" fill="none"/></g></g><g transform="translate(0 285.75)"><path d="M63.055-124.68l-16.557.327 3.976 7.437z" fill="#333"/><path d="M49.958-117.71l8.887-5.285-11.6.187z" fill="#666"/><g stroke="#000" stroke-width=".265"><path d="M18.521-146.05s-1.058-1.587-1.058-2.646c0-.794 1.058-.794 1.323-.529.529.265.775 1.512 1.323 2.117.264.264.793.529.793.529l.794.264h.53l.528 7.938s-2.861.343-4.233 0c-1.058-.265-2.117-1.058-2.117-1.058" fill="#f2f2f2" opacity=".919"/><path d="M20.373-142.35l.53.794v.794l-.53.529h-2.117" fill="none" opacity=".919"/><path d="M16.404-139.17s-.53-4.498-.265-5.292c.412-1.33 2.382-1.852 3.97-1.587" fill="#ececec" opacity=".919"/><path d="M17.992-144.2c1.706-.154 2.646 0 2.91.53.265.793-.264 1.057-.529 1.322-.187.187-2.381.265-2.381.265" fill="none" opacity=".919"/><path d="M19.315-145.26s.794 4.763 1.852 6.085c1.058 1.323 7.144 0 7.144 0s.53-.793.53-2.116-.266-5.292-.266-5.292" fill="#ff0" opacity=".919"/></g><ellipse transform="matrix(.9891 -.14728 .22303 .97481 0 0)" cx="56.074" cy="-141.24" rx="4.604" ry="1.449" fill="#f2f2f2" stroke="#1a1a1a" stroke-width=".265"/><path d="M27.781-145.79c0 .53-1.587.794-3.466 1.27-1.93.49-3.78.261-3.942-.212-.162-.473 1.391-1.182 3.357-1.5 1.965-.319 3.89-.031 4.051.442zM63.055-124.68l-16.557.327 3.976 7.437z" fill="#333"/><path d="M49.958-117.71l8.887-5.285-11.6.187z" fill="#666"/><g stroke="#000" stroke-width=".265"><path d="M18.521-146.05s-1.058-1.587-1.058-2.646c0-.794 1.058-.794 1.323-.529.529.265.775 1.512 1.323 2.117.264.264.793.529.793.529l.794.264h.53l.528 7.938s-2.861.343-4.233 0c-1.058-.265-2.117-1.058-2.117-1.058" fill="#f2f2f2"/><path d="M20.373-142.35l.53.794v.794l-.53.529h-2.117" fill="none"/><path d="M16.404-139.17s-.53-4.498-.265-5.292c.412-1.33 2.382-1.852 3.97-1.587" fill="#ececec"/><path d="M17.992-144.2c1.706-.154 2.646 0 2.91.53.265.793-.264 1.057-.529 1.322-.187.187-2.381.265-2.381.265" fill="none"/><path d="M19.315-145.26s.794 4.763 1.852 6.085c1.058 1.323 7.144 0 7.144 0s.53-.793.53-2.116-.266-5.292-.266-5.292" fill="#ff0"/></g><ellipse transform="matrix(.9891 -.14728 .22303 .97481 0 0)" cx="56.074" cy="-141.24" rx="4.604" ry="1.449" fill="#ff0" stroke="#1a1a1a" stroke-width=".265"/><path d="M27.781-145.79c0 .53-1.587.794-3.466 1.27-1.93.49-3.78.261-3.942-.212-.162-.473 1.391-1.182 3.357-1.5 1.965-.319 3.89-.031 4.051.442z" fill="#333"/><path d="M60.983-139.31s-.054 3.022-1.35 3.982c-4.58 3.766-10.008 4.855-12.81 7.743-1.496 1.643-1.204 4.223-1.036 4.438 1.18.793 1.087 2.729 3.593 3.44.83-.525 2.012-2.141 1.678-4.069 7.596-.19 15.866-5.347 18.838-9.322" fill="#1a1a1a" stroke="#000" stroke-width=".265"/><path d="M46.468-127.13c-1.085 1.625-.834 3.78-.681 3.977 1.18.793 1.087 2.728 3.592 3.44.831-.526 2.013-2.141 1.679-4.069l-1.948.333.047-1.075H47.52l.28-1.357h-1.45z" fill="#e6e6e6" stroke="#1a1a1a" stroke-width=".265"/><path d="M2.952-138.6l33.957-.094 12.816 23.901-34.705-1.45z" fill="#333"/><path d="M2.952-138.6l1.076-1.45 34.19-.14-1.31 1.497z" fill="#4d4d4d"/><path d="M38.219-140.2l12.254 23.292 12.582-7.764.094 1.918-13.424 7.95-12.816-23.9z" fill="#1a1a1a"/><path d="M17.467-130.3l9.528.066 2.114 5.623-9.2-.133z" fill="#ff0"/><g stroke-width=".265" aria-label="DEV"><path d="M20.766-125.864h.577c.815 0 1.054-.557.656-1.516-.396-.955-1.09-1.495-1.924-1.495h-.56zm.302-.316l-.988-2.38h.182c.53 0 .972.414 1.29 1.18.317.762.228 1.2-.302 1.2zM23.206-125.864h1.677l-.135-.324h-1.243l-.454-1.094h1.001l-.134-.323h-1.002l-.39-.943h1.2l-.135-.328h-1.635zM26.03-125.864h.54l-.481-3.012h-.433l.315 1.635c.069.357.135.652.195 1.008h-.024c-.232-.356-.415-.651-.642-1.008l-1.041-1.635h-.448z"/></g></g><g><path d="M63.055 65.82l-16.557.327 3.976 7.437z" fill="#333"/><path d="M49.958 72.79l8.887-5.285-11.6.187z" fill="#666"/><path d="M60.983 51.19s-.054 3.022-1.35 3.982c-4.58 3.766-10.008 4.854-12.81 7.742-1.496 1.644-1.204 4.224-1.036 4.439 1.18.793 1.087 2.728 3.593 3.44.83-.525 2.012-2.141 1.678-4.069 7.596-.19 15.866-5.347 18.838-9.322" fill="#1a1a1a" stroke="#000" stroke-width=".265"/><path d="M46.468 63.37c-1.085 1.625-.834 3.78-.681 3.977 1.18.793 1.087 2.728 3.592 3.44.831-.526 2.013-2.141 1.679-4.069l-1.948.333.047-1.075H47.52l.28-1.357h-1.45z" fill="#e6e6e6" stroke="#1a1a1a" stroke-width=".265"/><path d="M2.952 51.95l33.957-.094 12.816 23.901-34.705-1.45z" fill="#333"/><path d="M2.952 51.95l1.076-1.45 34.19-.14-1.31 1.497z" fill="#4d4d4d"/><path d="M38.219 50.35l12.254 23.292 12.582-7.764.094 1.918-13.424 7.95-12.816-23.9z" fill="#1a1a1a"/><path d="M17.467 60.25l9.528.066 2.114 5.622-9.2-.132z" fill="#ff0"/><g stroke-width=".265" aria-label="DEV"><path d="M20.766 64.686h.577c.815 0 1.054-.557.656-1.516-.396-.955-1.09-1.495-1.924-1.495h-.56zm.302-.316l-.988-2.38h.182c.53 0 .972.414 1.29 1.18.317.762.228 1.2-.302 1.2zM23.206 64.686h1.677l-.135-.324h-1.243l-.454-1.094h1.001l-.134-.323h-1.002l-.39-.943h1.2l-.135-.328h-1.635zM26.03 64.686h.54l-.481-3.012h-.433l.315 1.635c.069.357.135.652.195 1.008h-.024c-.232-.356-.415-.651-.642-1.008l-1.041-1.635h-.448z"/></g></g></svg>