<svg xmlns="http://www.w3.org/2000/svg" width="60" height="60"><path fill="#fff" d="M54.632.444H4.308C1.815.444 0 2.257 0 4.752v50.324c0 2.262 2.04 4.302 4.308 4.302h50.324c2.488 0 4.308-1.807 4.308-4.302V4.752C58.939 2.257 56.899.444 54.632.444zM18.135 50.313H9.067V23.108h9.067v27.205zm-4.532-30.831c-2.947 0-5.442-2.489-5.442-5.438 0-2.944 2.495-5.438 5.442-5.438 2.946 0 5.438 2.495 5.438 5.438 0 2.95-2.492 5.438-5.438 5.438zm36.266 30.831h-9.07v-13.6c0-3.626-.903-7.251-4.529-7.251s-4.532 3.625-4.532 7.251v13.6H22.67V23.108h9.068v3.177h.451c1.137-2.268 4.081-4.08 7.479-4.08 8.388 0 10.201 5.438 10.201 12.241v15.867z"/></svg>